<svg xmlns="http://www.w3.org/2000/svg" width="1300" height="1300" viewBox="0 0 1300 1300">
  <defs>
    <style>
      .cls-1 {
        fill: #fff;
      }

      .cls-1, .cls-2 {
        stroke: #2e2224;
        stroke-width: 0.29px;
        fill-rule: evenodd;
      }

      .cls-2 {
        fill: #9146ff;
      }
    </style>
  </defs>
  <path class="cls-1" d="M405.8,346.7H611.115V573.785h31.108V346.7h202.2V576.9H894.2V788.431H844.426V950.193H639.112V788.431H502.236L405.8,692V346.7Z"/>
  <path class="cls-2" d="M831.983,359.139H654.666V586.228H598.672V359.139H418.244V682.664l90.214,93.324h143.1V937.75H831.983V775.988h49.773V589.339H831.983v-230.2Z"/>
  <path id="Shape_3_copy" data-name="Shape 3 copy" class="cls-1" d="M1062.18,576.9V552.009H903.531V346.7H1177.28l99.55,93.324V953.3H1065.29V788.431H903.531V576.9H1062.18Z"/>
  <path id="Shape_3_copy_2" data-name="Shape 3 copy 2" class="cls-1" d="M237.817,576.9V552.009H396.469V346.7H122.717L23.171,440.02V953.3H234.707V788.431H396.469V576.9H237.817Z"/>
  <path class="cls-2" d="M35.615,446.242V940.861H222.263V775.988H384.026V589.339H225.374V539.566H384.026V359.139H128.939Z"/>
  <path id="Shape_1_copy_2" data-name="Shape 1 copy 2" class="cls-2" d="M35.615,446.242V940.861H222.263V775.988H384.026V589.339H225.374V539.566H384.026V359.139H128.939Z"/>
  <path id="Shape_1_copy" data-name="Shape 1 copy" class="cls-2" d="M1264.39,446.242V940.861H1077.74V775.988H915.974V589.339H1074.63V539.566H915.974V359.139H1171.06Z"/>
</svg>
