<svg xmlns="http://www.w3.org/2000/svg" width="800" height="800" viewBox="0 0 800 800">
  <defs>
    <style>
      .cls-1 {
        fill: #a55dfd;
        stroke-width: 20px;
      }

      .cls-1, .cls-2 {
        stroke: #fff;
      }

      .cls-2 {
        fill: #fff;
        stroke-width: 5px;
        fill-rule: evenodd;
      }
    </style>
  </defs>
  <rect id="Rounded_Rectangle_2_copy_2" data-name="Rounded Rectangle 2 copy 2" class="cls-1" x="57" y="57" width="686" height="686" rx="40" ry="40"/>
  <path id="Shape_318_1" data-name="Shape 318 1" class="cls-2" d="M483.818,383H559.83c20.531,0,34.887-1,46.973,7.685q0.427,0.853.854,1.708l3.416,2.562v1.707l2.562,1.708v1.708h0.854L616.2,405.2h0.854c2.908,7.339,1.708,23.207,1.708,33.3V535H181.48V412.035c0-9.841-1.567-25.235.854-33.3v-4.27h0.855c0.856-2.343.521-4.886,1.708-6.831l1.708-.854q0.426-1.707.854-3.416l4.27-3.415,3.416-4.27c10.135-6.872,24.791-5.977,41.849-5.977h78.574c1.666-4.549.854-12.816,0.854-18.787v-39.28h0.854q0.427-2.562.854-5.124h0.854q0.428-1.707.854-3.415h0.854v-1.708l1.709-.854v-1.708l2.562-1.708,4.27-5.123h1.708q0.428-.855.854-1.708l5.125-1.708v-0.854h2.562c9.135-3.618,24.07-2.562,36.724-2.562H431.72l26.476,0.854v0.854l5.125,0.854v0.854l3.416,0.854v0.854h1.708q0.428,0.854.854,1.708h1.708l4.27,5.123,2.563,1.708v1.708l1.708,0.854v1.708H480.4q0.428,1.707.854,3.415h0.854q0.427,2.562.854,5.124h0.854V383ZM380.477,307c0.045,5.6,2,8.609,2.562,13.663l13.665-5.977V383h17.081V299.317H397.558v0.854H395v0.854h-1.708v0.854ZM233.578,467.54h46.974V453.877H255.784v-0.854c2.323-1.48,2.679-3.722,4.27-5.977l2.562-1.708V443.63l4.271-3.416v-1.707l2.562-1.708q0.426-1.708.854-3.416l1.708-.854v-1.708l1.708-.854V428.26l1.708-.854,5.125-14.517c1-3.392-.174-9.858-0.855-11.955v-3.416h-0.854V395.81h-0.854V394.1l-1.708-.854v-1.708l-3.416-2.562q-0.428-.853-0.854-1.708c-6.821-4.576-20.9-4.933-29.038-1.708h-2.562l-0.854,1.708-2.563.854,3.417,12.809c4.066-2.288,8.251-5.836,14.519-3.416h2.562l4.27,5.978c0.053,4.612.6,10.259-.854,13.663h-0.854v1.707H259.2q-0.427,2.135-.854,4.27l-1.708.854q-0.427,1.707-.854,3.416l-1.708.854v1.707l-2.563,1.708v1.708l-1.708.854v1.708l-2.562,1.708v1.708l-2.562,1.707v1.708l-2.562,1.708v1.708l-4.271,3.416v1.707h-0.854q-0.853,1.281-1.708,2.562l-1.708.854V467.54Zm292.943-49.528c-0.07,4.475.434,10.315,1.708,13.663,5.241-2.4,9.311-3.01,16.227-1.708a18.71,18.71,0,0,0,3.417,4.27c0.309,10.984-2.644,15.97-12.811,16.225v13.662c3.463-.112,7.755.1,9.394,1.708,4.2,1.091,4.138,4.457,6.833,6.832,0.276,7.275-.418,13.139-5.978,14.516-1.345,1.39-9.255,2.812-12.811,1.708v-0.854h-3.417V487.18l-4.27-.854a22.976,22.976,0,0,0-.854,7.686h-0.854v5.123l2.562,0.854v0.854h3.416V501.7h4.271v0.854c5.16,1.464,12.4-.563,15.373-1.708h2.562v-0.854H553v-0.854h1.708l6.833-5.123V492.3L564.1,490.6q0.427-1.707.854-3.416h0.854v-1.708h0.854q0.428-3.414.854-6.831c3.33-11.466-4.642-23.8-13.665-25.618v-1.708l5.979-4.269c1.4-1.452,4.475-7.334,5.124-9.393q-0.428-5.55-.854-11.1h-0.854v-1.708h-0.854q-0.428-1.709-.854-3.416-0.855-.426-1.708-0.854l-2.563-3.415c-2.389-1.6-14.246-5.163-19.643-3.416V414.6l-5.124.854v0.854Z"/>
</svg>
