<svg xmlns="http://www.w3.org/2000/svg" width="800" height="800" viewBox="0 0 800 800">
  <defs>
    <style>
      .cls-1 {
        stroke: #000;
        opacity: 0.5;
      }

      .cls-1, .cls-2 {
        stroke-width: 20px;
      }

      .cls-2, .cls-5 {
        fill: #a55dfd;
        stroke: #fff;
      }

      .cls-3 {
        fill: #fff;
      }

      .cls-3, .cls-4 {
        fill-rule: evenodd;
      }

      .cls-4 {
        fill: #e5cfff;
      }

      .cls-5 {
        stroke-width: 2px;
      }
    </style>
  </defs>
  <rect id="Rounded_Rectangle_2_copy_4" data-name="Rounded Rectangle 2 copy 4" class="cls-1" x="41" y="50" width="718" height="693" rx="40" ry="40"/>
  <rect id="Rounded_Rectangle_2" data-name="Rounded Rectangle 2" class="cls-2" x="57" y="32" width="686" height="686" rx="40" ry="40"/>
  <path id="Shape_317_1" data-name="Shape 317 1" class="cls-3" d="M397.609,102.8c38.017-1.261,72.718,8.089,98.869,20l2.968,0c0,0.34,0,.681.007,1.021h1.978c0,0.34,0,.681.007,1.021l4.955,1.019,0.006,1.021,5.953,2.041,0.006,1.02h1.98q0,0.508.007,1.019h1.98q0,0.51.007,1.02l5.955,2.042,1,2.039,5.958,2.043q0.5,1.018,1,2.038l3.971,1.022,1,2.038,3.971,1.022q0,0.51.007,1.018l2.981,1.022,1,2.036,1.983,0,2,3.055,1.984,0,1,2.036,1.984,0,1,2.035,2.983,1.021q1,1.525,2,3.052l1.985,0,2,3.052h0.992q0.5,1.017,1.006,2.033l1.986,0,5,6.1h1.986l2.006,3.049q3.995,3.558,7.993,7.114l0.012,2.031c-2.641,1.577-3.867,3.984-5.924,6.1q-6.421,6.621-12.838,13.28-3.459,3.074-6.919,6.154-16.293,17.44-32.6,35.016-12.847,12.915-25.7,25.858-29.158,31.035-58.343,62.03-3.462,3.1-6.925,6.2-9.4,10.313-18.794,20.61c-3.833,3.99-9.08,7.379-11.871,12.352q127.7-.564,256.2-1.674a252.264,252.264,0,0,1-20.1,103.462q0,1.548-.01,3.1l-0.994,0q0,1.032-.007,2.064l-1,0q-0.505,2.58-1.012,5.161l-0.994,0q-1,3.1-2.01,6.192l-0.994,0q0,1.031-.007,2.062l-0.994,0q0,1.031-.008,2.061l-0.993,0q-1,3.093-2.011,6.185l-1.991,1.034-2.01,6.18-1.99,1.032q-0.505,2.059-1.01,4.117l-1.99,1.031q-0.5,2.058-1.009,4.115H617.29l-1,3.085-1.99,1.029q0,1.027-.008,2.055l-2.986,2.057q0,1.028-.008,2.054l-1.989,1.028-0.009,2.054-1.988,1.027-1,3.08-2.985,2.053q0,1.024-.008,2.051l-2.985,2.052q0,0.511,0,1.025l-1.988,1.025q0,1.026-.008,2.051l-5.971,5.122q0,1.024-.008,2.049l-2.983,2.047q-3.486,4.094-6.972,8.185h-1.982c-1.527-2.73-3.867-4.01-5.922-6.142q-6.416-6.656-12.838-13.311l-5.926-7.169q-16.8-16.9-33.631-33.8-12.369-13.311-24.75-26.616-29.711-30.185-59.447-60.311l-5.946-7.151q-9.909-9.7-19.818-19.39c-3.838-3.953-7.093-9.372-11.889-12.242q0.094,132.106-.095,263.545a227.6,227.6,0,0,1-98.834-20.383h-2.965v-1.019H296.37v-1.019l-4.942-1.02v-1.019l-5.93-2.039v-1.02h-1.977v-1.019h-1.977v-1.02l-5.93-2.039q-0.495-1.018-.989-2.039L268.7,603.5q-0.495-1.019-.989-2.039l-3.954-1.019q-0.493-1.02-.988-2.039l-3.954-1.02v-1.019l-2.965-1.02q-0.494-1.019-.988-2.039H252.88l-1.977-3.058h-1.977l-0.989-2.039h-1.976l-0.989-2.039-2.965-1.019-1.977-3.059h-1.977l-1.977-3.058h-0.988q-0.495-1.02-.989-2.039h-1.977l-4.942-6.117H225.2l-1.977-3.058-7.907-7.136v-2.039Q305.256,466.377,395.29,373.6c0-.341,0-0.683,0-1.024q-127.684.538-255.09,0.537a248.224,248.224,0,0,1,19.766-101.947v-3.059h0.988v-2.038h0.988q0.495-2.55.988-5.1h0.989q0.987-3.059,1.976-6.119h0.988v-2.039l0.988,0v-2.039h0.988q0.987-3.06,1.976-6.12l1.976-1.023,1.975-6.121q0.988-.511,1.976-1.024,0.494-2.04.988-4.08l1.976-1.024,0.987-4.081,0.988,0q0.494-1.532.988-3.062l1.975-1.025v-2.039l2.963-2.048v-2.04l1.975-1.025v-2.04l1.975-1.026,0.987-3.063,2.963-2.05v-2.04l2.962-2.051v-1.02l1.975-1.028q0-1.02,0-2.04l5.924-5.126v-2.041l2.961-2.054q3.454-4.1,6.909-8.2l1.974-.011c1.533,2.715,3.87,3.978,5.926,6.093q6.418,6.6,12.841,13.2l5.927,7.116,33.6,33.528,24.719,26.445q29.665,30,59.375,60.059l5.943,7.137q9.9,9.677,19.808,19.361c3.838,3.95,7.092,9.367,11.888,12.236q-0.105-132.114-.646-264.646"/>
  <path id="Shape_316_1" data-name="Shape 316 1" class="cls-4" d="M400.052,103q0,132.006.439,263.816l0.992,0c2.981-5.333,8.72-9.055,12.839-13.332l8.883-10.251,19.75-19.48q30.6-32.28,61.182-64.506,15.29-15.342,30.578-30.668,14.788-15.833,29.574-31.651l3.947-3.063c3.414-3.535,8.976-11.906,13.8-13.267q4.467,5.09,8.94,10.174l1.983,1.015,0.009,2.036q2.977,2.541,5.958,5.079l0.009,2.035q2.484,2.03,4.968,4.059l0.009,2.035,2.98,2.027q0,1.017.01,2.034l2.98,2.026q0,1.017.01,2.033l1.986,1.011q0,1.017.01,2.034l1.986,1.01q0.006,1.017.011,2.033l1.986,1.01q0.006,1.016.011,2.032l1.987,1.01q0.006,1.015.011,2.032l1.987,1.009,1.014,4.06c22.581,36.105,37.79,79.039,38.621,137.7q-128.065,1.6-256.022,1.835,0,0.512,0,1.023c5.174,3.08,8.791,9,12.946,13.256l9.96,9.17q9.472,10.191,18.956,20.381,31.426,31.572,62.92,63.117,14.982,15.781,29.936,31.585Q553.642,525.738,569,541.065q1.486,2.049,2.971,4.1c3.428,3.542,11.523,9.3,12.832,14.344q-4.917,4.695-9.831,9.389-0.492,1.038-.982,2.076l-1.968.015-4.91,6.243-1.968.013-3.926,5.2-1.969.013q-0.979,1.558-1.961,3.117l-1.969.011-1.96,3.117-1.969.011-0.978,2.075-1.97.01-0.978,2.076-1.969.01-0.978,2.074-1.97.01q-0.489,1.037-.977,2.075l-1.97.009q-0.489,1.037-.977,2.074l-3.937,1.052c-35,23.552-76.872,38.937-134.507,39.367Q398.989,506.83,398.538,375l-0.991,0c-2.982,5.334-8.722,9.056-12.842,13.334L375.816,398.6q-9.882,9.745-19.769,19.49-30.636,32.3-61.325,64.584-15.345,15.368-30.707,30.729-14.86,15.87-29.736,31.735l-3.968,3.07c-3.434,3.544-9.036,11.943-13.886,13.3q-4.475-5.118-8.946-10.239l-1.985-1.024q0-1.023,0-2.047-2.979-2.56-5.956-5.12,0-1.023,0-2.047l-4.96-4.1q0-1.024,0-2.047l-2.975-2.048q0-1.023,0-2.047l-2.974-2.048q0-1.023,0-2.047l-1.982-1.024q0-1.023,0-2.047l-1.982-1.023q0-1.024,0-2.047l-1.981-1.024q0-1.024,0-2.047l-1.981-1.024q0-1.023,0-2.047l-1.981-1.024q-0.5-2.046-.991-4.094c-22.378-36.441-37.1-80.039-37.592-139.187q127.479,0,255.418-.211l0-1.023c-5.173-3.082-8.784-9.008-12.93-13.264q-4.97-4.591-9.936-9.184Q363.238,336.218,353.808,326q-31.257-31.661-62.425-63.373-14.842-15.851-29.678-31.711-15.327-15.345-30.65-30.7l-2.965-4.094c-3.423-3.543-11.536-9.326-12.85-14.326l9.883-9.211q0.494-1.025.988-2.047h1.977l4.941-6.141h1.977q1.482-2.046,2.965-4.093h1.976l2.965-4.094h1.977l1.976-3.07h1.977l0.988-2.047h1.977l0.988-2.047h1.977q0.494-1.023.988-2.047h1.977q0.493-1.023.988-2.046H260.7q0.5-1.024.989-2.047l3.953-1.024c35.2-23.134,77.251-38.386,134.409-38.888"/>
  <circle class="cls-5" cx="400" cy="371" r="28"/>
</svg>
